<?xml version="1.0" encoding="utf-8"?>
<!-- Generator: Adobe Illustrator 26.3.0, SVG Export Plug-In . SVG Version: 6.00 Build 0)  -->
<svg version="1.1" id="Layer_1" xmlns="http://www.w3.org/2000/svg" xmlns:xlink="http://www.w3.org/1999/xlink" x="0px" y="0px"
	 viewBox="0 0 161.8 55" style="enable-background:new 0 0 161.8 55;" xml:space="preserve">
<style type="text/css">
	.st0{fill:#F6A11B;}
</style>
<path class="st0" d="M5,39c0.9-3.3,2.3-7,3.8-10.7C11.9,33,15.3,37,19,39.5c0.5,0.4,1.1,0.5,1.6,0.5c1.1,0,2.2-0.6,2.2-1.5
	c0-0.3-0.1-0.5-0.4-0.9c-3.1-3.4-5.9-7.1-8.3-11.4C29.3,22,38.4,14.7,38.4,7.6c0-5.1-3.8-7.5-9.6-7.5C20.1,0.1,10.7,4.4,1,13.4
	c-0.3,0.3-0.4,0.6-0.4,0.9c0,0.9,0.8,1.9,1.6,1.9c0.2,0,0.4-0.1,0.6-0.2C12.3,8.2,19.2,3.7,26.8,3.7c3,0,5,1.3,5,4.1
	c0,4.7-7.2,12.7-21.1,16.6c2.1-4.2,4.3-8.2,6.4-11.3c0.2-0.2,0.2-0.4,0.2-0.6c0-0.8-1.2-1.1-2.6-1.1c-1.5,0-3.3,0.5-3.9,1.5
	C6.4,20.1,4,26.3,2.7,30.6c-1,3.3-1.3,5.1-1.3,5.4c0,2.1,1.5,4.2,2.6,4.2C4.4,40.2,4.8,39.8,5,39z"/>
<path class="st0" d="M35.7,25.3c-3.2,0-10.8,6.4-10.8,11.1c0,2.3,1.3,3.3,3.8,3.3c2.2,0,4.9-1.6,7.3-4c-0.2,0.5-0.2,1-0.2,1.5
	c0,1.6,0.8,2.4,2.1,2.4c3.7,0,10-3.6,17.1-8.7c0.7-0.5,0.9-0.8,0.9-1.7c0-0.5-0.4-1.6-0.9-1.6c-0.5,0-6.9,5.7-12.9,7.8
	c0.7-2.7,3.1-7,3.1-8.4c0-1.1-1.8-1.5-2.9-1.5c-1.1,0-1.8,0.6-2.3,1.5l-1.9,3.6c-1.1,2.2-5,5.2-6.4,5.2c-1,0-1.3-0.8-1.3-1.6
	c0-0.7,0.2-1.5,0.5-1.8c2.3-0.4,6.9-2.5,6.9-5.2C37.8,26.2,37.2,25.3,35.7,25.3z"/>
<path class="st0" d="M68.2,33c1-2.9,2.2-5.3,2.2-6.1c0-1.1-1.8-1.5-2.9-1.5c-0.9,0-1.7,0.4-2.1,1L65,27.3c-1.9,3.4-5.7,7.3-9.6,8.7
	c1.2-2.6,3.6-7.1,4.3-8.5c0.2-0.4,0.2-0.5,0.2-0.6c0-0.9-1.7-1.7-3.2-1.7c-0.9,0-1.8,0.3-2.3,1c-3.1,5.2-4.9,9-4.9,10.7
	c0,1.6,0.3,2.8,3.1,2.8c2.5,0,5.7-1.6,9.4-5.2l-2.1,6c-3.7,3.8-7.8,9.7-7.8,13c0,0.8,1,1.6,1.7,1.6c2.4,0,6.9-5.7,10.7-13.5
	c1.9-1.2,3.6-2.4,5-3.4c0.8-0.5,0.9-1,0.9-1.9c0-0.5-0.4-1.1-0.9-1.1c-0.5,0-1.6,0.8-2.8,1.6C67.2,35.5,67.7,34.3,68.2,33z"/>
<path class="st0" d="M79.9,34c1.5-0.1,2.9-0.2,4.3-0.2c1,0,1.7-1.6,1.7-2.8c0-0.6-0.2-1.1-0.8-1.1c-3,0-6.2,0.2-9.4,0.8
	c-1,0.1-1.7,1.8-1.7,2.9c0,0.5,0.2,1,0.6,1C74.9,34.5,78.2,34.1,79.9,34z"/>
<path class="st0" d="M94.8,39c0.9-3.3,2.3-7,3.8-10.7c3.1,4.7,6.5,8.6,10.2,11.2c0.5,0.4,1.1,0.5,1.6,0.5c1.1,0,2.2-0.6,2.2-1.5
	c0-0.3-0.1-0.5-0.4-0.9c-3.1-3.4-5.9-7.1-8.3-11.4c15.2-4.3,24.2-11.6,24.2-18.7c0-5.1-3.8-7.5-9.6-7.5c-8.7,0-18.1,4.3-27.8,13.2
	c-0.3,0.3-0.4,0.6-0.4,0.9c0,0.9,0.8,1.9,1.6,1.9c0.2,0,0.4-0.1,0.6-0.2c9.4-7.8,16.3-12.4,23.9-12.4c3,0,5,1.3,5,4.1
	c0,4.7-7.2,12.7-21.1,16.6c2.1-4.2,4.3-8.2,6.4-11.3c0.2-0.2,0.2-0.4,0.2-0.6c0-0.8-1.2-1.1-2.6-1.1c-1.5,0-3.3,0.5-3.9,1.5
	c-4.4,7.3-6.9,13.6-8.2,17.8c-1,3.3-1.3,5.1-1.3,5.4c0,2.1,1.5,4.2,2.6,4.2C94.2,40.2,94.6,39.8,94.8,39z"/>
<path class="st0" d="M133.8,35.3c1.1-3,2.6-6,3.8-8.5c0.1-0.2,0.1-0.3,0.1-0.5c0-0.9-1.6-1.2-3.2-1.2c-1,0-1.7,0.4-2,1.1
	c-1.7,3.5-6,8.4-10.2,9.9c1.2-2.6,3.6-7.1,4.3-8.5c0.2-0.4,0.2-0.5,0.2-0.7c0-0.9-1.7-1.7-3.2-1.7c-0.9,0-1.8,0.3-2.3,1
	c-3.1,5.2-4.9,9-4.9,10.7c0,1.6,0.3,2.8,3.1,2.8c2.6,0,6-1.7,9.9-5.8c-0.7,1.3-1.4,2.9-1.4,4c0,0.9,0.4,1.6,1.6,1.6
	c3.7,0,10-3.6,17.1-8.7c0.7-0.5,0.9-0.8,0.9-1.7c0-0.5-0.4-1.6-0.9-1.6C146.2,27.5,139.9,33.3,133.8,35.3z"/>
<path class="st0" d="M158.2,37.9c0.3-1.1-0.3-1.7,1.4-5.2c1.2-2.5,1.8-3.7,1.8-5.1c0-1.1-1.2-2.2-2.2-2.2c-2.1,0-7.1,4.1-11.1,8
	c0.9-1.6,2.6-4.5,3.3-5.9c0.2-0.4,0.2-0.5,0.2-0.6c0-0.9-1.7-1.7-3.2-1.7c-0.9,0-1.8,0.3-2.3,1c-3.1,5.2-5.3,9.9-5.3,11.7
	c0,0.9,1.9,1.9,2.8,1.9c1.5,0,6.7-5.7,10.7-8.4c-0.5,1.5-2,4.2-2,6.6c0,1.6,0.8,2.1,1.5,2.1C155.7,40,157.9,38.8,158.2,37.9z"/>
</svg>
